<?xml version="1.0" encoding="UTF-8"?>
<svg version="1.1" xmlns="http://www.w3.org/2000/svg" color="white" width="1141" height="241">
<path d="M0 0 C1.6284787 -0.01577087 1.6284787 -0.01577087 3.28985596 -0.03186035 C6.86269466 -0.05817008 10.43373635 -0.04081551 14.0065918 -0.02050781 C16.50229736 -0.02455283 18.99800062 -0.03037867 21.49369812 -0.03790283 C27.38795745 -0.04786748 33.28157101 -0.02693749 39.17573565 0.00500178 C43.85879277 0.02749719 48.5410923 0.01958595 53.22412109 -0.00585938 C59.70450354 -0.04075914 66.18415761 -0.04603559 72.66460228 -0.0265274 C75.1256242 -0.02254183 77.58667757 -0.0273769 80.04766273 -0.04140472 C83.49874296 -0.05675655 86.94752695 -0.03325902 90.3984375 0 C91.40295456 -0.01214539 92.40747162 -0.02429077 93.44242859 -0.0368042 C102.34745127 0.12106461 108.89705514 3.5976499 115.7956543 9.08496094 C127.28146363 21.09986705 127.41852016 30.88731573 127.2487793 47.07324219 C127.00122735 54.63976658 125.37641356 60.05545011 121.89331055 66.77636719 C120.83893523 69.4255236 119.86677064 72.09578354 118.89331055 74.77636719 C120.21395508 76.01 120.21395508 76.01 121.5612793 77.26855469 C132.68481593 87.86863078 139.68377623 98.64734761 140.29174805 114.53027344 C140.29957107 116.46647131 140.29171505 118.40279497 140.26831055 120.33886719 C140.27991211 121.30244141 140.29151367 122.26601562 140.3034668 123.25878906 C140.25490028 135.26281305 136.89444796 143.68238178 128.64331055 152.40136719 C111.81544332 168.54959519 77.33283203 162.17066095 55.62770939 162.27299595 C49.12388536 162.30367886 42.62104353 162.35038804 36.11767578 162.43481445 C29.78379407 162.51676997 23.45077514 162.55943651 17.11639214 162.57432365 C14.71501157 162.58654428 12.31365847 162.61251361 9.9125843 162.6527729 C6.55755277 162.70629519 3.2059546 162.70923643 -0.14941406 162.70043945 C-1.12985184 162.72763062 -2.11028961 162.75482178 -3.12043762 162.78283691 C-9.96953046 162.69052997 -13.44796942 160.62536945 -18.42549992 155.98216152 C-21.43464762 152.03402789 -21.23218573 147.91091398 -21.24040222 143.09707642 C-21.24466721 141.96440842 -21.24893219 140.83174042 -21.25332642 139.66474915 C-21.25264664 137.81468513 -21.25264664 137.81468513 -21.25195312 135.92724609 C-21.25531174 134.62102798 -21.25867035 133.31480988 -21.26213074 131.9690094 C-21.27094996 128.39249856 -21.27330797 124.81601165 -21.27394652 121.23949099 C-21.27465819 119.00298471 -21.2767947 116.76648448 -21.27944374 114.52997971 C-21.28869016 106.72180547 -21.29277949 98.91364828 -21.29199219 91.10546875 C-21.29139152 83.83630024 -21.30194293 76.56720597 -21.31773585 69.29805624 C-21.3308268 63.04906193 -21.33617543 56.80009184 -21.33553678 50.55108392 C-21.33528226 46.82239633 -21.33810817 43.09377475 -21.34871483 39.36510086 C-21.36022676 35.20477501 -21.35563948 31.04461476 -21.34960938 26.88427734 C-21.35522888 25.6549498 -21.36084839 24.42562225 -21.36663818 23.15904236 C-21.31547673 9.27475787 -21.31547673 9.27475787 -17.58404541 5.05408287 C-12.09378413 0.25865432 -7.06631454 -0.08492379 0 0 Z M10.89331055 31.77636719 C10.89331055 64.11636719 10.89331055 96.45636719 10.89331055 129.77636719 C20.81393555 129.79699219 30.73456055 129.81761719 40.95581055 129.83886719 C44.01483643 129.84797119 47.0738623 129.8570752 50.22558594 129.86645508 C68.80198026 129.89743539 87.33122614 129.50693752 105.89331055 128.77636719 C107.936445 121.89054578 108.80370801 116.32644248 105.9519043 109.53417969 C103.03311801 104.42871192 98.94065297 100.09675655 93.22564697 98.23231506 C90.07459402 97.61631649 87.04071535 97.61033892 83.82983398 97.57104492 C82.7755722 97.55619553 82.7755722 97.55619553 81.70001221 97.54104614 C79.38427055 97.50953935 77.06850839 97.4847167 74.75268555 97.45996094 C73.14413937 97.43938205 71.53559849 97.41838534 69.92706299 97.39698792 C65.69881485 97.34186371 61.47051869 97.29241198 57.2421875 97.24414062 C52.16599285 97.18500975 47.08988574 97.118835 42.01376343 97.05384064 C34.30699938 96.95595257 26.6001785 96.86701353 18.89331055 96.77636719 C18.89331055 86.21636719 18.89331055 75.65636719 18.89331055 64.77636719 C25.4675293 64.7725 25.4675293 64.7725 32.17456055 64.76855469 C35.68593816 64.74971971 39.19716129 64.7249081 42.70846558 64.69607544 C46.40599398 64.66734354 50.10288935 64.64895782 53.80053711 64.65625 C57.36719484 64.6628743 60.932608 64.64018654 64.49900818 64.59781265 C66.51062737 64.58137287 68.52241936 64.59469927 70.53405762 64.60861206 C77.43383894 64.49979136 82.06150625 64.05841074 87.36071777 59.43289185 C92.5923295 53.77823004 94.94873859 48.52243572 94.89331055 40.77636719 C94.80130594 36.4234817 94.80130594 36.4234817 92.89331055 32.77636719 C90.02853167 32.52443891 87.19058506 32.34633289 84.3190918 32.21777344 C83.39808182 32.17552139 82.47707184 32.13326935 81.52815247 32.08973694 C67.719706 31.52980294 53.89747263 31.67184639 40.08081055 31.71386719 C25.63299805 31.74480469 25.63299805 31.74480469 10.89331055 31.77636719 Z " fill="#2B1A58" transform="translate(622.106689453125,38.2236328125)"/>
<path d="M0 0 C1.18238503 -0.01708511 1.18238503 -0.01708511 2.38865662 -0.03451538 C10.54249005 -0.14424205 18.69714847 -0.19239109 26.8515625 -0.23535156 C30.71301246 -0.25769612 34.57350654 -0.29959514 38.43457031 -0.35839844 C43.11997255 -0.42957773 47.80447003 -0.46619188 52.49038506 -0.47846985 C54.26738999 -0.4888406 56.04436909 -0.51119383 57.82106209 -0.54606628 C73.4061999 -0.83642526 73.4061999 -0.83642526 78.66552734 3.51953125 C82.65620874 7.73593917 82.70284877 11.76299399 82.69813538 17.40020752 C82.70019737 19.30164017 82.70019737 19.30164017 82.70230103 21.2414856 C82.69876211 22.64373803 82.6951273 24.04599022 82.69140625 25.44824219 C82.69112414 26.9266459 82.69128258 28.40504974 82.69184875 29.88345337 C82.6921358 33.89549751 82.68625404 37.90751179 82.6792748 41.91954899 C82.67302584 46.1129294 82.67243624 50.30631048 82.67124939 54.49969482 C82.66814063 62.43982809 82.65993336 70.37994759 82.6498999 78.3200748 C82.63872465 87.35989694 82.63322475 96.39971973 82.62820446 105.43954706 C82.61775038 124.03457722 82.59941054 142.62958851 82.57788086 161.22460938 C72.34788086 161.22460938 62.11788086 161.22460938 51.57788086 161.22460938 C51.57788086 148.35460937 51.57788086 135.48460937 51.57788086 122.22460938 C19.23788086 122.22460938 -13.10211914 122.22460938 -46.42211914 122.22460938 C-46.42211914 135.09460938 -46.42211914 147.96460938 -46.42211914 161.22460938 C-56.98211914 161.22460938 -67.54211914 161.22460938 -78.42211914 161.22460938 C-78.46749665 149.99262741 -78.50410776 138.76070739 -78.52574348 127.5286541 C-78.53613312 122.31187378 -78.55020317 117.09516001 -78.57299805 111.87841797 C-78.59489972 106.83390788 -78.60672391 101.78946138 -78.61187363 96.74490738 C-78.61553854 94.83061855 -78.62269413 92.91633277 -78.63357925 91.00207138 C-78.70811783 77.33689813 -78.63551375 63.72948527 -73.85961914 50.72460938 C-73.60712402 50.02174805 -73.35462891 49.31888672 -73.09448242 48.59472656 C-69.55638976 39.29806864 -63.97450919 30.68935753 -57.42211914 23.22460938 C-56.76211914 23.22460938 -56.10211914 23.22460938 -55.42211914 23.22460938 C-55.42211914 22.56460938 -55.42211914 21.90460937 -55.42211914 21.22460938 C-39.90787352 7.06198364 -20.75577634 0.21283966 0 0 Z M-36.42211914 49.22460938 C-45.59345017 60.87984256 -46.42211914 75.94287843 -46.42211914 90.22460938 C-14.08211914 90.22460938 18.25788086 90.22460938 51.57788086 90.22460938 C51.08288086 61.51460937 51.08288086 61.51460937 50.57788086 32.22460938 C37.12006836 32.10085937 37.12006836 32.10085937 23.39038086 31.97460938 C19.18251831 31.91998535 19.18251831 31.91998535 14.88964844 31.86425781 C12.6255774 31.8525576 10.36149785 31.84236895 8.09741211 31.83398438 C6.95477905 31.81352051 5.812146 31.79305664 4.6348877 31.77197266 C-11.19866772 31.76523139 -25.4709076 37.68672578 -36.42211914 49.22460938 Z " fill="#2B1958" transform="translate(488.422119140625,38.775390625)"/>
<path d="M0 0 C3.0495653 0.01818682 6.09882368 0.02050945 9.1484375 0.02026367 C34.21728519 0.06142114 56.12729946 0.90194622 75.0703125 19.45581055 C88.87798627 33.51363052 94.67472955 51.18432909 94.5859375 70.7019043 C94.58785095 71.65670181 94.5897644 72.61149933 94.59173584 73.5952301 C94.59308586 75.59766913 94.58947299 77.60011727 94.58105469 79.60253906 C94.5703503 82.63260978 94.58098465 85.66208615 94.59375 88.69213867 C94.61047522 110.68275359 91.40448061 130.36928079 75.65625 146.9284668 C61.21500321 161.00747495 44.23444816 166.73396595 24.29296875 166.5690918 C23.10158798 166.5695903 21.91020721 166.57008881 20.682724 166.57060242 C18.18275266 166.56827943 15.6827782 166.55865722 13.18286133 166.54199219 C9.395779 166.51839135 5.60940302 166.52144715 1.82226562 166.52807617 C-29.47015647 166.49496563 -29.47015647 166.49496563 -40.8046875 161.14331055 C-41.46936035 160.83731934 -42.1340332 160.53132812 -42.81884766 160.21606445 C-60.19505244 151.88066187 -71.07927474 137.98192218 -77.6796875 120.20581055 C-79.79625583 113.05148935 -80.01551143 106.06000896 -80.05078125 98.6394043 C-80.05980972 97.44710709 -80.0688382 96.25480988 -80.07814026 95.02638245 C-80.0925931 92.51094044 -80.10151708 89.99546126 -80.10522461 87.47998047 C-80.1170764 83.67894199 -80.16627866 79.87955204 -80.21679688 76.07885742 C-80.36032394 54.43691281 -76.93247969 38.03030219 -62.6796875 21.20581055 C-62.16921875 20.59866211 -61.65875 19.99151367 -61.1328125 19.3659668 C-44.84810435 1.58983735 -22.47472006 -0.1383115 0 0 Z M-40.17578125 44.9362793 C-41.45678368 46.65822025 -42.60284203 48.34891801 -43.6796875 50.20581055 C-44.18709473 50.98738525 -44.69450195 51.76895996 -45.21728516 52.57421875 C-47.3158853 57.78568406 -47.1669251 62.64690508 -47.18359375 68.2175293 C-47.19357895 69.38153763 -47.20356415 70.54554596 -47.21385193 71.74482727 C-47.22901582 74.20501155 -47.23607826 76.66525732 -47.2355957 79.12548828 C-47.24213552 82.86360192 -47.29658221 86.59902832 -47.35351562 90.33666992 C-47.36232284 92.73444736 -47.36827361 95.13223734 -47.37109375 97.5300293 C-47.40342857 99.18841072 -47.40342857 99.18841072 -47.43641663 100.8802948 C-47.35909876 109.76754693 -44.78612273 116.77366665 -38.68434143 123.35942078 C-36.74767212 125.19402746 -34.89507274 126.70979919 -32.6796875 128.20581055 C-32.11137207 128.61044022 -31.54305664 129.01506989 -30.95751953 129.43196106 C-24.11467187 133.81961846 -17.92628803 133.97989483 -9.94921875 133.9753418 C-7.98718758 133.99318977 -7.98718758 133.99318977 -5.98551941 134.01139832 C-3.22601801 134.03219843 -0.46731279 134.03364701 2.29223633 134.02246094 C5.09480356 134.01312608 7.89440316 134.03382653 10.6965332 134.08398438 C32.59635464 135.04388244 32.59635464 135.04388244 51.3203125 125.20581055 C59.30534192 116.43922852 61.72496151 106.59115426 62.0703125 94.95581055 C62.10415039 94.01705078 62.13798828 93.07829102 62.17285156 92.11108398 C62.37223671 85.21969152 62.31863842 78.34508119 62.0703125 71.45581055 C62.04420898 70.57634766 62.01810547 69.69688477 61.99121094 68.79077148 C61.41674515 56.88983065 57.73337596 48.20575152 49.1328125 39.95581055 C41.061735 33.59212099 31.77358004 32.60061736 21.8203125 32.67456055 C20.08491211 32.66882019 20.08491211 32.66882019 18.31445312 32.66296387 C15.88410566 32.66025874 13.45372837 32.66752097 11.0234375 32.68432617 C7.33006094 32.70575399 3.63862946 32.68447444 -0.0546875 32.65893555 C-2.42969174 32.66157907 -4.80469478 32.66670455 -7.1796875 32.67456055 C-8.26958984 32.66646362 -9.35949219 32.6583667 -10.48242188 32.65002441 C-21.8661076 32.78740464 -32.53798592 36.10196251 -40.17578125 44.9362793 Z " fill="#2D1C5A" transform="translate(858.6796875,35.794189453125)"/>
<path d="M0 0 C10.56 0 21.12 0 32 0 C32 21.12 32 42.24 32 64 C64.01 64 96.02 64 129 64 C129 42.88 129 21.76 129 0 C139.56 0 150.12 0 161 0 C161 53.13 161 106.26 161 161 C150.44 161 139.88 161 129 161 C129 139.55 129 118.1 129 96 C96.99 96 64.98 96 32 96 C32 117.45 32 138.9 32 161 C21.44 161 10.88 161 0 161 C-1.09814427 57.76275584 -1.09814427 57.76275584 -1.125 25.9375 C-1.12749756 24.9019397 -1.12999512 23.86637939 -1.13256836 22.79943848 C-1.13829498 19.9795366 -1.13710621 17.15974588 -1.1328125 14.33984375 C-1.13479645 13.56037888 -1.1367804 12.780914 -1.13882446 11.97782898 C-1.12054254 7.7945516 -0.69695809 4.18174856 0 0 Z " fill="#281656" transform="translate(222,39)"/>
<path d="M0 0 C16.5 0 33 0 50 0 C50 70.95 50 141.9 50 215 C11 215 11 215 0 214 C0 143.38 0 72.76 0 0 Z " fill="#8FB7E1" transform="translate(143,11)"/>
<path d="M0 0 C16.5 0 33 0 50 0 C50 70.95 50 141.9 50 215 C11 215 11 215 0 214 C0 143.38 0 72.76 0 0 Z " fill="#466481" transform="translate(81,11)"/>
<path d="M0 0 C16.5 0 33 0 50 0 C50 70.62 50 141.24 50 214 C37.60333801 215.12696927 37.60333801 215.12696927 32.1875 215.1328125 C30.42019531 215.13474609 30.42019531 215.13474609 28.6171875 215.13671875 C27.42351563 215.13285156 26.22984375 215.12898437 25 215.125 C23.80632813 215.12886719 22.61265625 215.13273438 21.3828125 215.13671875 C20.20460938 215.13542969 19.02640625 215.13414062 17.8125 215.1328125 C16.76707031 215.13168457 15.72164062 215.13055664 14.64453125 215.12939453 C9.7516086 214.95567742 4.8758986 214.44326351 0 214 C0 143.38 0 72.76 0 0 Z " fill="#072F57" transform="translate(19,11)"/>
<path d="M0 0 C52.14 0 104.28 0 158 0 C158 10.23 158 20.46 158 31 C137.21 31 116.42 31 95 31 C95 73.9 95 116.8 95 161 C84.44 161 73.88 161 63 161 C63 118.1 63 75.2 63 31 C42.21 31 21.42 31 0 31 C0 20.77 0 10.54 0 0 Z " fill="#271555" transform="translate(963,39)"/>
<path d="M0 0 C0.66 0.33 1.32 0.66 2 1 C-2.62 5.62 -7.24 10.24 -12 15 C-12 11.06830895 -10.60580385 9.83572772 -8 7 C-7.34 7 -6.68 7 -6 7 C-6 6.34 -6 5.68 -6 5 C-4.04072937 3.2856382 -2.04119788 1.61594832 0 0 Z " fill="#776C94" transform="translate(439,55)"/>
<path d="M0 0 C0.66 0.33 1.32 0.66 2 1 C1.51789062 1.47050781 1.03578125 1.94101562 0.5390625 2.42578125 C-0.40839844 3.35970703 -0.40839844 3.35970703 -1.375 4.3125 C-2.00148438 4.92738281 -2.62796875 5.54226562 -3.2734375 6.17578125 C-5.18086607 8.08812528 -5.18086607 8.08812528 -7 11 C-6.85969405 7.98342209 -6.70648535 5.76158727 -4.59765625 3.48828125 C-3.11095765 2.26743934 -1.55865102 1.12753478 0 0 Z " fill="#6F638D" transform="translate(609,40)"/>
</svg>
